<svg width="2464" height="1114" fill="none" xmlns="http://www.w3.org/2000/svg"><rect width="183.103" height="620.785" rx="91.551" transform="scale(-1 1) rotate(70.386 -1426.307 -988.307)" fill="url(#a)" fill-opacity=".32"/><rect x="807" y="434.406" width="183.103" height="620.785" rx="91.551" transform="rotate(-38.669 807 434.406)" fill="url(#b)" fill-opacity=".32"/><rect x="388" y="114.406" width="183.103" height="620.785" rx="91.551" transform="rotate(-38.669 388 114.406)" fill="#7373FF" fill-opacity=".32"/><rect x="72" y="309.406" width="183.103" height="620.785" rx="91.551" transform="rotate(-38.669 72 309.406)" fill="#7373FF" fill-opacity=".32"/><rect y="628.406" width="183.103" height="620.785" rx="91.551" transform="rotate(-38.669 0 628.406)" fill="#7373FF" fill-opacity=".32"/><rect width="183.103" height="620.785" rx="91.551" transform="scale(1 -1) rotate(24.438 2451.723 3788.105)" fill="url(#c)" fill-opacity=".32"/><circle cx="411" cy="937" r="50" fill="url(#d)"/><defs><linearGradient id="a" x1="91.551" y1="0" x2="123.384" y2="580.434" gradientUnits="userSpaceOnUse"><stop stop-color="#7373FF"/><stop offset="1" stop-color="#7373FF" stop-opacity="0"/></linearGradient><linearGradient id="b" x1="898.551" y1="434.406" x2="930.384" y2="1014.84" gradientUnits="userSpaceOnUse"><stop offset=".236" stop-color="#7373FF"/><stop offset="1" stop-color="#7373FF" stop-opacity="0"/></linearGradient><linearGradient id="c" x1="91.551" y1="0" x2="123.384" y2="580.434" gradientUnits="userSpaceOnUse"><stop offset=".236" stop-color="#7373FF"/><stop offset="1" stop-color="#7373FF" stop-opacity="0"/></linearGradient><linearGradient id="d" x1="374" y1="902" x2="429" y2="987" gradientUnits="userSpaceOnUse"><stop stop-color="#6E5BFF"/><stop offset="1" stop-color="#6D58FF"/></linearGradient></defs></svg>